<mxfile host="Electron" modified="2023-04-12T17:49:00.891Z" agent="Mozilla/5.0 (Windows NT 10.0; Win64; x64) AppleWebKit/537.36 (KHTML, like Gecko) draw.io/21.1.2 Chrome/106.0.5249.199 Electron/21.4.3 Safari/537.36" etag="E4bREHKoNkV2HQ8OVn7J" version="21.1.2" type="device">
  <diagram name="PÃ¡gina-1" id="xAlf2-2vAacfX4u5f6ym">
    <mxGraphModel dx="704" dy="678" grid="1" gridSize="10" guides="1" tooltips="1" connect="1" arrows="1" fold="1" page="1" pageScale="1" pageWidth="827" pageHeight="1169" math="0" shadow="0">
      <root>
        <mxCell id="0" />
        <mxCell id="1" parent="0" />
        <mxCell id="Fib0QVNreCmnkIBZZ_DN-5" style="edgeStyle=orthogonalEdgeStyle;rounded=0;orthogonalLoop=1;jettySize=auto;html=1;entryX=0.5;entryY=0;entryDx=0;entryDy=0;" parent="1" source="Fib0QVNreCmnkIBZZ_DN-1" target="Fib0QVNreCmnkIBZZ_DN-2" edge="1">
          <mxGeometry relative="1" as="geometry" />
        </mxCell>
        <mxCell id="Fib0QVNreCmnkIBZZ_DN-1" value="" style="ellipse;whiteSpace=wrap;html=1;aspect=fixed;" parent="1" vertex="1">
          <mxGeometry x="389" y="69" width="21" height="21" as="geometry" />
        </mxCell>
        <mxCell id="Fib0QVNreCmnkIBZZ_DN-6" style="edgeStyle=orthogonalEdgeStyle;rounded=0;orthogonalLoop=1;jettySize=auto;html=1;entryX=0.5;entryY=0;entryDx=0;entryDy=0;" parent="1" source="Fib0QVNreCmnkIBZZ_DN-2" target="F9wq_m0begH4jg4u4Oq1-1" edge="1">
          <mxGeometry relative="1" as="geometry">
            <mxPoint x="399.5" y="210" as="targetPoint" />
          </mxGeometry>
        </mxCell>
        <mxCell id="Fib0QVNreCmnkIBZZ_DN-2" value="clientApp::writeHandler" style="rounded=1;whiteSpace=wrap;html=1;" parent="1" vertex="1">
          <mxGeometry x="334.5" y="110" width="130.5" height="40" as="geometry" />
        </mxCell>
        <mxCell id="Fib0QVNreCmnkIBZZ_DN-33" value="Start" style="text;html=1;align=center;verticalAlign=middle;resizable=0;points=[];autosize=1;strokeColor=none;fillColor=none;" parent="1" vertex="1">
          <mxGeometry x="375" y="45" width="50" height="30" as="geometry" />
        </mxCell>
        <mxCell id="F9wq_m0begH4jg4u4Oq1-6" style="edgeStyle=orthogonalEdgeStyle;rounded=0;orthogonalLoop=1;jettySize=auto;html=1;entryX=0.5;entryY=0;entryDx=0;entryDy=0;" edge="1" parent="1" source="F9wq_m0begH4jg4u4Oq1-1" target="F9wq_m0begH4jg4u4Oq1-2">
          <mxGeometry relative="1" as="geometry" />
        </mxCell>
        <mxCell id="F9wq_m0begH4jg4u4Oq1-1" value="userInRoom::ReadHandler" style="rounded=1;whiteSpace=wrap;html=1;" vertex="1" parent="1">
          <mxGeometry x="324.25" y="170" width="150.5" height="40" as="geometry" />
        </mxCell>
        <mxCell id="F9wq_m0begH4jg4u4Oq1-7" style="edgeStyle=orthogonalEdgeStyle;rounded=0;orthogonalLoop=1;jettySize=auto;html=1;entryX=0.5;entryY=0;entryDx=0;entryDy=0;" edge="1" parent="1" source="F9wq_m0begH4jg4u4Oq1-2" target="F9wq_m0begH4jg4u4Oq1-3">
          <mxGeometry relative="1" as="geometry" />
        </mxCell>
        <mxCell id="F9wq_m0begH4jg4u4Oq1-2" value="chatRoom::broadcast" style="rounded=1;whiteSpace=wrap;html=1;" vertex="1" parent="1">
          <mxGeometry x="315" y="230" width="170" height="40" as="geometry" />
        </mxCell>
        <mxCell id="F9wq_m0begH4jg4u4Oq1-8" style="edgeStyle=orthogonalEdgeStyle;rounded=0;orthogonalLoop=1;jettySize=auto;html=1;entryX=0.5;entryY=0;entryDx=0;entryDy=0;" edge="1" parent="1" source="F9wq_m0begH4jg4u4Oq1-3" target="F9wq_m0begH4jg4u4Oq1-4">
          <mxGeometry relative="1" as="geometry" />
        </mxCell>
        <mxCell id="F9wq_m0begH4jg4u4Oq1-3" value="userInRoom::onMessage" style="rounded=1;whiteSpace=wrap;html=1;" vertex="1" parent="1">
          <mxGeometry x="315" y="290" width="170" height="40" as="geometry" />
        </mxCell>
        <mxCell id="F9wq_m0begH4jg4u4Oq1-9" style="edgeStyle=orthogonalEdgeStyle;rounded=0;orthogonalLoop=1;jettySize=auto;html=1;entryX=0.5;entryY=0;entryDx=0;entryDy=0;" edge="1" parent="1" source="F9wq_m0begH4jg4u4Oq1-4" target="F9wq_m0begH4jg4u4Oq1-5">
          <mxGeometry relative="1" as="geometry" />
        </mxCell>
        <mxCell id="F9wq_m0begH4jg4u4Oq1-4" value="userInRoom::writeHandler" style="rounded=1;whiteSpace=wrap;html=1;" vertex="1" parent="1">
          <mxGeometry x="315" y="350" width="170" height="40" as="geometry" />
        </mxCell>
        <mxCell id="F9wq_m0begH4jg4u4Oq1-11" style="edgeStyle=orthogonalEdgeStyle;rounded=0;orthogonalLoop=1;jettySize=auto;html=1;entryX=0.5;entryY=0;entryDx=0;entryDy=0;" edge="1" parent="1" source="F9wq_m0begH4jg4u4Oq1-5" target="F9wq_m0begH4jg4u4Oq1-10">
          <mxGeometry relative="1" as="geometry" />
        </mxCell>
        <mxCell id="F9wq_m0begH4jg4u4Oq1-5" value="clientApp::readHandler" style="rounded=1;whiteSpace=wrap;html=1;" vertex="1" parent="1">
          <mxGeometry x="329.25" y="410" width="140.5" height="40" as="geometry" />
        </mxCell>
        <mxCell id="F9wq_m0begH4jg4u4Oq1-10" value="" style="ellipse;whiteSpace=wrap;html=1;aspect=fixed;fillColor=#000000;" vertex="1" parent="1">
          <mxGeometry x="389" y="470" width="21" height="21" as="geometry" />
        </mxCell>
      </root>
    </mxGraphModel>
  </diagram>
</mxfile>
